<svg xmlns="http://www.w3.org/2000/svg" viewBox="0 0 64 64">
  <rect width="64" height="64" rx="16" fill="#1A73E8"/>
  <path d="M13 21.5h28.5c4.4 0 7.7 2.2 9.4 6.1l2.8 6.4v9H10V26a4.5 4.5 0 0 1 3-4.5Z" fill="#fff"/>
  <path d="M38.5 22v12H51l-2.3-5.2c-1.1-2.5-3.2-4.2-6.8-4.2h-3.4Z" fill="#D2E3FC"/>
  <path d="M17 28h17v6H17z" fill="#1A73E8" opacity=".22"/>
  <path d="M11 39h43" stroke="#0B57D0" stroke-width="2.5" stroke-linecap="round"/>
  <circle cx="20" cy="44" r="5.5" fill="#172033" stroke="#fff" stroke-width="2.5"/>
  <circle cx="46" cy="44" r="5.5" fill="#172033" stroke="#fff" stroke-width="2.5"/>
  <path d="M29 14.5v8M25 16.8l8 4.6M33 16.8l-8 4.6" stroke="#fff" stroke-width="2" stroke-linecap="round"/>
</svg>
